<svg width="18" height="16" viewBox="0 0 18 16" fill="none" xmlns="http://www.w3.org/2000/svg">
<path d="M6 8L10 12V9H18V7L10 7L10 4L6 8ZM0 2V14C0 14.5304 0.210714 15.0391 0.585787 15.4142C0.960859 15.7893 1.46957 16 2 16L14 16C14.5304 16 15.0391 15.7893 15.4142 15.4142C15.7893 15.0391 16 14.5304 16 14V11H14V14L2 14L2 2L14 2V5H16V2C16 1.46957 15.7893 0.960859 15.4142 0.585787C15.0391 0.210714 14.5304 0 14 0L2 0C1.46957 0 0.960859 0.210714 0.585787 0.585787C0.210714 0.960859 0 1.46957 0 2Z" fill="#666666" fill-opacity="0.4"/>
</svg>
