<svg width="22" height="22" viewBox="0 0 22 22" fill="none" xmlns="http://www.w3.org/2000/svg">
<path d="M3.66667 3.66667H9.16667V9.16667H3.66667V3.66667ZM18.3333 3.66667V9.16667H12.8333V3.66667H18.3333ZM12.8333 13.75H14.6667V11.9167H12.8333V10.0833H14.6667V11.9167H16.5V10.0833H18.3333V11.9167H16.5V13.75H18.3333V16.5H16.5V18.3333H14.6667V16.5H11.9167V18.3333H10.0833V14.6667H12.8333V13.75ZM14.6667 13.75V16.5H16.5V13.75H14.6667ZM3.66667 18.3333V12.8333H9.16667V18.3333H3.66667ZM5.5 5.5V7.33333H7.33333V5.5H5.5ZM14.6667 5.5V7.33333H16.5V5.5H14.6667ZM5.5 14.6667V16.5H7.33333V14.6667H5.5ZM3.66667 10.0833H5.5V11.9167H3.66667V10.0833ZM8.25 10.0833H11.9167V13.75H10.0833V11.9167H8.25V10.0833ZM10.0833 5.5H11.9167V9.16667H10.0833V5.5ZM1.83333 1.83333V5.5H0V1.83333C0 1.3471 0.193154 0.880788 0.536971 0.536971C0.880788 0.193154 1.3471 0 1.83333 0L5.5 0V1.83333H1.83333ZM20.1667 0C20.6529 0 21.1192 0.193154 21.463 0.536971C21.8068 0.880788 22 1.3471 22 1.83333V5.5H20.1667V1.83333H16.5V0H20.1667ZM1.83333 16.5V20.1667H5.5V22H1.83333C1.3471 22 0.880788 21.8068 0.536971 21.463C0.193154 21.1192 0 20.6529 0 20.1667V16.5H1.83333ZM20.1667 20.1667V16.5H22V20.1667C22 20.6529 21.8068 21.1192 21.463 21.463C21.1192 21.8068 20.6529 22 20.1667 22H16.5V20.1667H20.1667Z" fill="#999999"/>
</svg>
