<svg width="22" height="22" viewBox="0 0 22 22" fill="none" xmlns="http://www.w3.org/2000/svg">
<path d="M10.0833 16.5H11.9167V14.6666H10.0833V16.5ZM11 1.83331C9.79621 1.83331 8.60421 2.07042 7.49206 2.53108C6.37991 2.99175 5.36939 3.66696 4.51818 4.51817C2.7991 6.23725 1.83333 8.56883 1.83333 11C1.83333 13.4311 2.7991 15.7627 4.51818 17.4818C5.36939 18.333 6.37991 19.0082 7.49206 19.4689C8.60421 19.9295 9.79621 20.1666 11 20.1666C13.4311 20.1666 15.7627 19.2009 17.4818 17.4818C19.2009 15.7627 20.1667 13.4311 20.1667 11C20.1667 9.7962 19.9296 8.6042 19.4689 7.49205C19.0082 6.3799 18.333 5.36937 17.4818 4.51817C16.6306 3.66696 15.6201 2.99175 14.5079 2.53108C13.3958 2.07042 12.2038 1.83331 11 1.83331ZM11 18.3333C6.9575 18.3333 3.66666 15.0425 3.66666 11C3.66666 6.95748 6.9575 3.66665 11 3.66665C15.0425 3.66665 18.3333 6.95748 18.3333 11C18.3333 15.0425 15.0425 18.3333 11 18.3333ZM11 5.49998C10.0275 5.49998 9.0949 5.88629 8.40727 6.57392C7.71964 7.26155 7.33333 8.19419 7.33333 9.16665H9.16666C9.16666 8.68042 9.35982 8.2141 9.70363 7.87028C10.0475 7.52647 10.5138 7.33331 11 7.33331C11.4862 7.33331 11.9525 7.52647 12.2964 7.87028C12.6402 8.2141 12.8333 8.68042 12.8333 9.16665C12.8333 11 10.0833 10.7708 10.0833 13.75H11.9167C11.9167 11.6875 14.6667 11.4583 14.6667 9.16665C14.6667 8.19419 14.2804 7.26155 13.5927 6.57392C12.9051 5.88629 11.9725 5.49998 11 5.49998Z" fill="#666666"/>
</svg>
