<svg width="50" height="50" viewBox="0 0 50 50" fill="none" xmlns="http://www.w3.org/2000/svg">
<g clip-path="url(#clip0)">
<path d="M49.2441 40.7446L28.6846 5.35638C27.7394 3.76125 26.3806 2.81599 24.9627 2.81599C23.4857 2.81599 22.1269 3.76125 21.2407 5.35638L0.799463 40.7446C-0.145797 42.3397 -0.263955 43.9939 0.504069 45.2346C1.21301 46.4752 2.68998 47.1842 4.5805 47.1842H45.463C47.2945 47.1842 48.7714 46.4752 49.5395 45.2346C50.2484 43.9939 50.1302 42.3397 49.2441 40.7446ZM47.2945 43.9939C46.9991 44.4665 46.3492 44.7029 45.4039 44.7029H4.52143C3.57617 44.7029 2.86722 44.4075 2.63091 43.9939C2.33551 43.5213 2.45367 42.8123 2.9263 41.9852L23.3676 6.59704C23.8402 5.76993 24.431 5.2973 24.9627 5.2973C25.4944 5.2973 26.0852 5.76993 26.5578 6.59704L46.9991 41.9852C47.4717 42.8123 47.5899 43.5213 47.2945 43.9939Z" fill="white"/>
<path d="M24.9627 14.4545C24.2538 14.4545 23.722 14.9862 23.722 15.6952V32.1191C23.722 32.828 24.2538 33.3597 24.9627 33.3597C25.6716 33.3597 26.2034 32.828 26.2034 32.1191V15.6952C26.2034 14.9862 25.6716 14.4545 24.9627 14.4545Z" fill="white"/>
<path d="M24.9627 40.5083C26.17 40.5083 27.1486 39.5296 27.1486 38.3223C27.1486 37.1151 26.17 36.1364 24.9627 36.1364C23.7555 36.1364 22.7768 37.1151 22.7768 38.3223C22.7768 39.5296 23.7555 40.5083 24.9627 40.5083Z" fill="white"/>
</g>
<defs>
<clipPath id="clip0">
<rect width="50" height="50" fill="white"/>
</clipPath>
</defs>
</svg>
