<svg xmlns="http://www.w3.org/2000/svg" fill="none" viewBox="0 0 50 50"><defs/><g fill="#fff" clip-path="url(#clip0)"><path d="M40.906 33.598l-5.358-1.865a1.042 1.042 0 00-1.11.28c-2.628 2.866-5.98 4.445-9.438 4.445s-6.81-1.579-9.438-4.445a1.046 1.046 0 00-1.11-.28l-5.358 1.865A13.551 13.551 0 000 46.388v1.529c0 .575.467 1.041 1.042 1.041h47.916c.575 0 1.042-.466 1.042-1.041v-1.53c0-5.76-3.654-10.9-9.094-12.789zm7.01 13.277H2.084v-.487c0-4.873 3.092-9.223 7.694-10.823l4.725-1.644c2.954 2.985 6.658 4.62 10.498 4.62 3.84 0 7.544-1.635 10.498-4.62l4.725 1.644a11.467 11.467 0 017.694 10.823v.487z"/><path d="M37.494 13.813c.004-.09.006-.182.006-.271 0-6.894-5.606-12.5-12.5-12.5s-12.5 5.606-12.5 12.5c0 .09.002.181.006.27-1.241.68-2.09 2.578-2.09 4.938 0 2.898 1.28 5.1 2.996 5.204C15.306 30.23 19.867 34.375 25 34.375c5.133 0 9.694-4.146 11.587-10.42 1.717-.105 2.996-2.307 2.996-5.205 0-2.36-.847-4.258-2.09-4.938zm-1.1 8.016a1.045 1.045 0 00-.942-.079c-.306.125-.535.39-.617.712-1.458 5.88-5.41 9.83-9.835 9.83-4.425 0-8.377-3.95-9.835-9.83-.082-.322-.342-.562-.65-.689a.947.947 0 00-.367-.069c-.213 0-.43.06-.606.171-.26 0-1.042-1.108-1.042-3.125 0-1.91.702-3.004.996-3.117.01.002.023.005.031.005.306.023.62-.08.842-.3.22-.223.331-.534.298-.844l-.03-.26c-.024-.23-.054-.457-.054-.692 0-5.744 4.673-10.417 10.417-10.417s10.417 4.673 10.417 10.417c0 .235-.03.462-.055.69l-.029.26c-.03.312.077.623.298.843.223.223.534.327.842.302l.031-.004c.294.113.996 1.207.996 3.117 0 2.017-.764 3.125-1.106 3.08z"/><path d="M25 9.375c-2.454 0-4.167 1.713-4.167 4.167a1.042 1.042 0 002.084 0c0-1.88 1.456-2.084 2.083-2.084.627 0 2.083.205 2.083 2.084 0 1.748-.385 2.545-1.585 3.277-2.317 1.416-2.704 3.29-2.569 4.173.08.512.517.864 1.02.864.043 0 .086-.004.13-.008.556-.065.958-.58.913-1.14-.003-.043-.07-1.095 1.593-2.11 1.834-1.12 2.582-2.585 2.582-5.056 0-2.454-1.713-4.167-4.167-4.167zM23.958 26.042a1.042 1.042 0 100-2.084 1.042 1.042 0 000 2.084z"/></g><defs><clipPath id="clip0"><path fill="#fff" d="M0 0h50v50H0z"/></clipPath></defs></svg>
