<svg xmlns="http://www.w3.org/2000/svg" fill="none" viewBox="0 0 50 50"><defs/><path fill="#fff" d="M7.199 8.052v12.712c0 .508.412.92.92.92H20.83a.92.92 0 00.919-.92v-2.41a.92.92 0 00-1.838 0v1.491H9.037V8.971h10.875v2.213a.92.92 0 101.838 0V8.052a.92.92 0 00-.92-.92H8.119a.92.92 0 00-.92.92z"/><path fill="#fff" d="M12.568 11.582a.919.919 0 00-.92.92v3.813c0 .508.412.92.92.92h3.813a.92.92 0 00.92-.92v-3.814a.92.92 0 00-.92-.919h-3.813zm2.894 3.814h-1.975v-1.975h1.975v1.975zM20.83 28.248H8.119a.92.92 0 00-.92.919v12.712a.92.92 0 00.92.92h12.713a.92.92 0 00.919-.92V29.168a.92.92 0 00-.92-.92zm-.918 12.712H9.037V30.086h10.875V40.96zM29.297 21.683H42.01a.92.92 0 00.918-.919V8.052a.92.92 0 00-.918-.92H29.297a.92.92 0 00-.92.92v12.712c0 .508.412.92.92.92zm.919-12.712H41.09v10.874H30.216V8.971zM42.928 41.88V29.166a.92.92 0 00-.918-.92H29.297a.92.92 0 00-.92.92v12.712a.92.92 0 00.92.92H42.01a.92.92 0 00.918-.92zm-1.838-.92H30.216V30.086H41.09V40.96z"/><path fill="#fff" d="M42.01 25.94a.92.92 0 000-1.838H25.894V7.95a.92.92 0 00-1.838 0v16.152h-12.2a.92.92 0 000 1.838h12.2v15.94a.919.919 0 001.838 0V25.94H42.01z"/><path fill="#fff" d="M12.568 38.418h3.813a.92.92 0 00.92-.92v-3.813a.919.919 0 00-.92-.92h-3.813a.919.919 0 00-.92.92v3.813c0 .508.412.92.92.92zm.919-3.814h1.975v1.975h-1.975v-1.975zM37.56 11.582h-3.814a.92.92 0 00-.92.92v3.813c0 .508.413.92.92.92h3.814a.92.92 0 00.92-.92v-3.814a.919.919 0 00-.92-.919zm-.92 3.814h-1.974v-1.975h1.975v1.975zM33.746 38.418h3.814a.92.92 0 00.92-.92v-3.813a.919.919 0 00-.92-.92h-3.814a.919.919 0 00-.92.92v3.813c0 .508.413.92.92.92zm.92-3.814h1.975v1.975h-1.975v-1.975zM7.932 24.106l-.05.011a.92.92 0 00.422 1.79l.05-.012a.919.919 0 10-.422-1.79zM20.645 13.852l-.049.011a.92.92 0 00.42 1.79l.05-.011a.919.919 0 00-.42-1.79zM2.457 9.116c.508 0 .92-.412.92-.92V3.426h4.597a.92.92 0 100-1.838H2.457a.92.92 0 00-.919.92v5.69a.92.92 0 00.92.919zM47.494 1.587h-5.517a.92.92 0 100 1.838h4.598v4.772a.919.919 0 101.838 0v-5.69a.92.92 0 00-.919-.92zM7.974 46.584H3.376v-4.771a.919.919 0 00-1.838 0v5.69c0 .508.412.92.92.92h5.516a.92.92 0 100-1.839zM47.494 40.894a.919.919 0 00-.92.919v4.771h-4.597a.92.92 0 100 1.839h5.517a.92.92 0 00.92-.92v-5.69a.92.92 0 00-.92-.92z"/></svg>
