<svg width="71" height="25" viewBox="0 0 71 25" fill="none" xmlns="http://www.w3.org/2000/svg">
<path d="M2.49995 10.1818C2.59086 6.09087 4.77268 4.04541 8.99995 4.04541H9.4545V7.36359H8.36359C6.59086 7.36359 5.72723 8.31814 5.72723 10.1363V16.7272H2.49995V10.1818Z" fill="#2B2B2B"/>
<path d="M14.2273 7.36365H11.0455C11.4091 5.00001 13.0909 3.86365 16 3.86365C19.5 3.86365 21.2727 5.00001 21.3182 7.36365V11.6818C21.3182 15.1818 19.2273 16.7273 15.7727 16.9546C12.7273 17.1818 10.6364 15.7727 10.6364 13C10.7273 9.95456 12.9091 9.13637 16.1364 8.81819C17.5 8.63637 18.1818 8.22728 18.1818 7.54547C18.0909 6.81819 17.4546 6.45456 16.1364 6.45456C15.0455 6.50001 14.4091 6.77274 14.2273 7.36365ZM18.2727 11.5455V10.3636C17.5455 10.6818 16.6818 10.9546 15.7273 11.1364C14.4546 11.3636 13.8182 11.9546 13.8182 12.9091C13.9091 13.9091 14.4091 14.4091 15.4091 14.4091C17.1818 14.3636 18.2727 13.3182 18.2727 11.5455Z" fill="#2B2B2B"/>
<path d="M28.4091 14.4091C29.7273 14.4091 30.4091 14.0454 30.4091 13.2272C30.4091 12.5909 29.3182 12.0454 27.1364 11.6818C24.3182 11.1818 22.9091 9.95451 22.8637 7.95451C22.8637 5.22724 25 3.95451 27.9091 3.90906C29.5455 3.90906 30.8182 4.27269 31.7728 4.99997C32.7273 5.72724 33.2273 6.77269 33.2728 8.09088H31.2728C30.5455 8.04542 30.0455 7.81815 29.8637 7.31815C29.6364 6.77269 29 6.45451 27.9546 6.45451C26.7273 6.45451 26.0909 6.77269 26.0909 7.45451C26.0909 8.13633 26.9091 8.59088 28.5455 8.90906C30.6819 9.31815 32.0909 9.90906 32.8182 10.5454C33.4091 11.1818 33.6819 11.9545 33.6819 12.7727C33.6819 15.8636 31.2273 17.0454 27.9091 17.0454C26.1364 17.0454 24.8182 16.6818 23.9546 15.9091C23 15.1818 22.5 14.0909 22.5 12.6363H25.7728C25.8637 13.9545 26.8637 14.4091 28.4091 14.4091Z" fill="#2B2B2B"/>
<path d="M38.6364 6.36362H38.3182V13.3636C38.3182 13.9091 38.6364 14.1818 39.2728 14.1818H40.2728V16.5909C39.2273 16.6818 38.1364 16.6818 36.9091 16.5454C35.6818 16.4091 35.1364 15.6818 35.1818 14.2727V0.454529H36.8182C37.6364 0.454529 38.3637 1.22726 38.3637 2.04544V4.04544H40.2728V4.72726C40.1819 5.6818 39.5 6.36362 38.6364 6.36362Z" fill="#2B2B2B"/>
<path d="M41.5455 10.1818C41.6364 6.09087 43.8182 4.04541 48.0455 4.04541H48.5V7.36359H47.4091C45.6364 7.36359 44.7728 8.31814 44.7728 10.1363V16.7272H41.5455V10.1818Z" fill="#2B2B2B"/>
<path d="M53.2726 7.36365H50.0908C50.4545 5.00001 52.1363 3.86365 55.0454 3.86365C58.5454 3.86365 60.3181 5.00001 60.3636 7.36365V11.6818C60.3636 15.1818 58.2727 16.7273 54.8181 16.9546C51.7726 17.1818 49.6817 15.7727 49.6817 13C49.7726 9.95456 51.9545 9.13637 55.1817 8.81819C56.5454 8.63637 57.2272 8.22728 57.2272 7.54547C57.1363 6.81819 56.4999 6.45456 55.1817 6.45456C54.0454 6.50001 53.4545 6.77274 53.2726 7.36365ZM57.2727 11.5455V10.3636C56.5454 10.6818 55.6817 10.9546 54.7272 11.1364C53.4545 11.3636 52.8181 11.9546 52.8181 12.9091C52.909 13.9091 53.409 14.4091 54.409 14.4091C56.2272 14.3636 57.2727 13.3182 57.2727 11.5455Z" fill="#2B2B2B"/>
<path d="M61.9091 10.1818C62 6.09087 64.1818 4.04541 68.4091 4.04541H68.8636V7.36359H67.7727C66 7.36359 65.1364 8.31814 65.1364 10.1363V16.7272H61.9091V10.1818Z" fill="#2B2B2B"/>
<path d="M65.3637 19C66.8182 19 68.0455 20.1818 68.0455 21.6818C68.0455 23.1818 66.8637 24.3636 65.3637 24.3636C63.8637 24.3636 62.6818 23.1818 62.6818 21.6818C62.6818 20.1818 63.9091 19 65.3637 19ZM65.3637 18.8182C63.7728 18.8182 62.5 20.0909 62.5 21.6818C62.5 23.2727 63.7728 24.5454 65.3637 24.5454C66.9546 24.5454 68.2273 23.2727 68.2273 21.6818C68.2273 20.0909 66.9546 18.8182 65.3637 18.8182Z" fill="#2B2B2B"/>
<path d="M61.4546 21.5909H49.1819V21.8182H61.4546V21.5909Z" fill="#2B2B2B"/>
<path d="M41.2728 21.2728H29V22.1364H41.2728V21.2728Z" fill="#E9505B"/>
<path d="M21.1364 21.2728H8.86363V22.1364H21.1364V21.2728Z" fill="#E9505B"/>
<path d="M25.0454 24.5454C26.627 24.5454 27.9091 23.2634 27.9091 21.6818C27.9091 20.1003 26.627 18.8182 25.0454 18.8182C23.4639 18.8182 22.1818 20.1003 22.1818 21.6818C22.1818 23.2634 23.4639 24.5454 25.0454 24.5454Z" fill="#E9505B"/>
<path d="M45.2272 24.5454C46.8088 24.5454 48.0909 23.2634 48.0909 21.6818C48.0909 20.1003 46.8088 18.8182 45.2272 18.8182C43.6457 18.8182 42.3636 20.1003 42.3636 21.6818C42.3636 23.2634 43.6457 24.5454 45.2272 24.5454Z" fill="#E9505B"/>
<path d="M4.90915 18.8182C3.31824 18.8182 2.04552 20.0909 2.04552 21.6818C2.04552 23.2727 3.31824 24.5454 4.90915 24.5454C6.50006 24.5454 7.77279 23.2727 7.77279 21.6818C7.77279 20.0909 6.50006 18.8182 4.90915 18.8182Z" fill="#E9505B"/>
</svg>
