<svg xmlns="http://www.w3.org/2000/svg" fill="none" viewBox="0 0 180 64"><defs/><path fill="#fff" d="M6.346 25.837c.231-10.38 5.77-15.571 16.5-15.571H24v8.42h-2.77c-4.5 0-6.691 2.422-6.691 7.036v16.725H6.346v-16.61zM36.115 18.686h-8.077c.924-5.998 5.193-8.882 12.577-8.882 8.885 0 13.385 2.884 13.5 8.882v10.958c0 8.881-5.307 12.803-14.077 13.38-7.73.576-13.038-3-13.038-10.035.23-7.728 5.77-9.805 13.962-10.612 3.461-.461 5.192-1.5 5.192-3.23-.23-1.845-1.846-2.768-5.192-2.768-2.77.115-4.385.807-4.847 2.307zm10.27 10.611V26.3c-1.846.807-4.039 1.499-6.462 1.96-3.23.577-4.846 2.077-4.846 4.499.23 2.537 1.5 3.806 4.038 3.806 4.5-.115 7.27-2.768 7.27-7.267zM72.115 36.564c3.347 0 5.077-.922 5.077-2.999 0-1.615-2.769-2.999-8.307-3.921-7.154-1.27-10.731-4.383-10.847-9.459 0-6.92 5.424-10.15 12.808-10.265 4.154 0 7.385.922 9.808 2.768 2.423 1.845 3.692 4.498 3.808 7.843h-5.077c-1.847-.115-3.116-.692-3.577-1.96-.577-1.385-2.193-2.192-4.847-2.192-3.115 0-4.73.807-4.73 2.537s2.077 2.884 6.23 3.692c5.424 1.038 9 2.537 10.847 4.152 1.5 1.615 2.192 3.576 2.192 5.652 0 7.843-6.23 10.842-14.654 10.842-4.5 0-7.846-.923-10.038-2.883-2.423-1.846-3.693-4.614-3.693-8.305h8.308c.23 3.345 2.77 4.498 6.692 4.498zM98.077 16.148h-.808v17.763c0 1.384.808 2.076 2.423 2.076h2.539v6.114c-2.654.23-5.423.23-8.539-.116-3.115-.346-4.5-2.191-4.384-5.767V1.153h4.154c2.076 0 3.923 1.961 3.923 4.037v5.076h4.846v1.73c-.231 2.422-1.962 4.152-4.154 4.152zM105.462 25.837c.23-10.38 5.769-15.571 16.5-15.571h1.153v8.42h-2.769c-4.5 0-6.692 2.422-6.692 7.036v16.725h-8.192v-16.61zM135.231 18.686h-8.077c.923-5.998 5.192-8.882 12.577-8.882 8.884 0 13.384 2.884 13.5 8.882v10.958c0 8.881-5.308 12.803-14.077 13.38-7.731.576-13.039-3-13.039-10.035.231-7.728 5.77-9.805 13.962-10.612 3.461-.461 5.192-1.5 5.192-3.23-.231-1.845-1.846-2.768-5.192-2.768-2.885.115-4.385.807-4.846 2.307zm10.154 10.611V26.3c-1.847.807-4.039 1.499-6.462 1.96-3.231.577-4.846 2.077-4.846 4.499.231 2.537 1.5 3.806 4.038 3.806 4.616-.115 7.27-2.768 7.27-7.267zM157.154 25.837c.231-10.38 5.769-15.571 16.5-15.571h1.154v8.42h-2.77c-4.5 0-6.692 2.422-6.692 7.036v16.725h-8.192v-16.61zM165.923 48.214c3.692 0 6.808 2.999 6.808 6.805 0 3.807-3 6.806-6.808 6.806s-6.808-3-6.808-6.806 3.116-6.805 6.808-6.805zm0-.461a7.238 7.238 0 00-7.269 7.266 7.238 7.238 0 007.269 7.267 7.237 7.237 0 007.269-7.267 7.237 7.237 0 00-7.269-7.266zM156 54.789h-31.154v.576H156v-.576zM104.769 53.981H73.615v2.192h31.154V53.98zM53.654 53.981H22.5v2.192h31.154V53.98zM63.577 62.286a7.268 7.268 0 100-14.533 7.268 7.268 0 100 14.533zM114.808 62.286a7.268 7.268 0 007.269-7.267 7.268 7.268 0 00-7.269-7.266 7.268 7.268 0 00-7.27 7.266 7.268 7.268 0 007.27 7.267zM12.461 47.753a7.238 7.238 0 00-7.269 7.266 7.238 7.238 0 007.27 7.267c4.038 0 7.269-3.23 7.269-7.267a7.238 7.238 0 00-7.27-7.266z"/></svg>
