<svg xmlns="http://www.w3.org/2000/svg" id="Capa_1" x="0" y="0" version="1.1" viewBox="0 0 125 55" xml:space="preserve"><defs/><style>.st0{fill:#393}.st1{fill:#2b2b2b}</style><ellipse id="XMLID_13_" cx="11" cy="48.6" class="st0" rx="5" ry="5.2"/><ellipse id="XMLID_12_" cx="45.6" cy="48.6" class="st0" rx="5" ry="5.2"/><ellipse id="XMLID_11_" cx="79.8" cy="48.6" class="st0" rx="5" ry="5.2"/><g id="XMLID_75_"><g id="XMLID_76_"><g id="XMLID_77_"><path id="XMLID_78_" d="M113.5 54c-2.9 0-5.2-2.4-5.2-5.4 0-3 2.3-5.4 5.2-5.4 2.9 0 5.2 2.4 5.2 5.4.1 3-2.3 5.4-5.2 5.4zm0-10.4c-2.7 0-4.8 2.2-4.8 5s2.2 5 4.8 5c2.7 0 4.8-2.2 4.8-5 .1-2.8-2.1-5-4.8-5z" class="st1"/></g></g></g><g id="XMLID_50_"><g id="XMLID_51_"><path id="XMLID_52_" d="M86.2 47.5h21v2.1h-21z" class="st1"/></g></g><path id="XMLID_7_" d="M52.3 47.5h21v2.1h-21z" class="st0"/><path id="XMLID_6_" d="M17.8 47.5h21v2.1h-21z" class="st0"/><path d="M32.9 4.1c1.9 1.9 3 4.4 3 7.3 0 4.2-2.5 7.8-6 9.4-.9.4-1.9.7-3 .8h-.3v.1H8.3v17.6H1.4V1h24.1c2.8 0 5.4 1.1 7.3 3l.1.1zM27 14.6c1.3-.5 2.1-1.8 2.1-3.2 0-1.3-.7-2.1-1-2.5-.4-.4-1.3-1-2.5-1H8.3V15h17.3c.5-.1 1-.2 1.4-.4zM69.7 39.3H62l-3.5-6.8L50.2 16l-8.4 16.4-3.5 6.8h-7.7l3.5-6.8L50.2 1l16 31.4 3.5 6.9zM94.6 16.4l16.6 22.9h-8.4L89.5 21l-9.7 8.8v9.5H73V1h6.8v19.6l5.6-5.1 5.1-4.6L101.2 1h10.1L94.6 16.4zM116.7 39.3V1h6.8v38.3h-6.8z" class="st1"/></svg>
